<svg width="28" height="28" viewBox="0 0 28 28" fill="none" xmlns="http://www.w3.org/2000/svg">
<rect width="28" height="28" rx="2" fill="white"/>
<path d="M19.6569 8.34313C18.1458 6.83216 16.1369 6 14 6C11.8631 6 9.85416 6.83216 8.34313 8.34313C6.83216 9.85416 6 11.8631 6 14C6 16.1369 6.83216 18.1458 8.34313 19.6569C9.85416 21.1678 11.8631 22 14 22C16.1369 22 18.1458 21.1678 19.6569 19.6569C21.1678 18.1458 22 16.1369 22 14C22 11.8631 21.1678 9.85416 19.6569 8.34313ZM20.7494 13.5312V14.4688H19.4984V13.5312H20.7494ZM9.78059 10.4435L8.896 9.55891L9.55891 8.896L10.4435 9.78059L9.78059 10.4435ZM10.4435 18.2194L9.55891 19.104L8.896 18.4411L9.78059 17.5565L10.4435 18.2194ZM17.3091 13.5312V14.4688H13.5312V10.6909H14.4688V13.5312H17.3091ZM14.4688 8.50163H13.5312V7.25063H14.4688V8.50163ZM13.5312 19.4984H14.4688V20.7494H13.5312V19.4984ZM17.5565 18.2194L18.2194 17.5565L19.104 18.4411L18.4411 19.104L17.5565 18.2194ZM18.2194 10.4435L17.5565 9.78059L18.4411 8.896L19.104 9.55891L18.2194 10.4435ZM8.50163 13.5312V14.4688H7.25063V13.5312H8.50163Z" fill="#322A1B"/>
</svg>
