<svg width="28" height="28" viewBox="0 0 28 28" fill="none" xmlns="http://www.w3.org/2000/svg">
<rect width="28" height="28" rx="2" fill="white"/>
<path d="M8.42859 19.0527H9.64315V19.9634H8.42859V19.0527Z" fill="#322A1B"/>
<path d="M19.6604 16.3213C18.9999 16.3213 18.3543 16.5171 17.8052 16.884C17.2561 17.251 16.8281 17.7725 16.5754 18.3826C16.3226 18.9928 16.2565 19.6642 16.3853 20.3119C16.5142 20.9597 16.8322 21.5547 17.2992 22.0217C17.7662 22.4887 18.3612 22.8067 19.0089 22.9355C19.6567 23.0644 20.3281 22.9983 20.9382 22.7455C21.5484 22.4928 22.0699 22.0648 22.4368 21.5157C22.8038 20.9665 22.9996 20.3209 22.9996 19.6605C22.9985 18.7752 22.6464 17.9265 22.0204 17.3005C21.3944 16.6745 20.5457 16.3223 19.6604 16.3213ZM21.8436 18.8172L19.2679 21.3929C19.2109 21.4499 19.1337 21.4818 19.0533 21.4818C18.9728 21.4818 18.8956 21.4499 18.8386 21.3929L17.5509 20.1049C17.4956 20.0477 17.465 19.971 17.4657 19.8914C17.4664 19.8118 17.4983 19.7357 17.5546 19.6794C17.6109 19.6231 17.687 19.5912 17.7666 19.5905C17.8462 19.5898 17.9229 19.6204 17.9801 19.6757L19.0533 20.7491L21.4144 18.388C21.4716 18.3327 21.5483 18.3021 21.6279 18.3028C21.7075 18.3034 21.7836 18.3354 21.8399 18.3917C21.8962 18.4479 21.9281 18.5241 21.9288 18.6037C21.9295 18.6833 21.8989 18.7599 21.8436 18.8172Z" fill="#322A1B"/>
<path d="M12.0713 13.5894H13.2859V14.5H12.0713V13.5894Z" fill="#322A1B"/>
<path d="M15.7139 13.5894H16.9281V14.5H15.7139V13.5894Z" fill="#322A1B"/>
<path d="M8.42859 16.3213H9.64315V17.232H8.42859V16.3213Z" fill="#322A1B"/>
<path d="M12.0713 16.3213H13.2859V17.232H12.0713V16.3213Z" fill="#322A1B"/>
<path d="M8.42859 13.5894H9.64315V14.5H8.42859V13.5894Z" fill="#322A1B"/>
<path d="M9.6429 9.03565C9.80377 9.03517 9.95792 8.97105 10.0717 8.85729C10.1854 8.74354 10.2495 8.58939 10.25 8.42852V6.60713C10.25 6.44611 10.1861 6.29168 10.0722 6.17782C9.95834 6.06397 9.80392 6 9.6429 6C9.48188 6 9.32745 6.06397 9.21359 6.17782C9.09973 6.29168 9.03577 6.44611 9.03577 6.60713V8.42852C9.03625 8.58939 9.10037 8.74354 9.21412 8.85729C9.32788 8.97105 9.48202 9.03517 9.6429 9.03565Z" fill="#322A1B"/>
<path d="M14.4997 9.03565C14.6606 9.03517 14.8147 8.97105 14.9285 8.85729C15.0422 8.74354 15.1064 8.58939 15.1068 8.42852V6.60713C15.1068 6.44611 15.0429 6.29168 14.929 6.17782C14.8152 6.06397 14.6607 6 14.4997 6C14.3387 6 14.1843 6.06397 14.0704 6.17782C13.9565 6.29168 13.8926 6.44611 13.8926 6.60713V8.42852C13.8931 8.58939 13.9572 8.74354 14.0709 8.85729C14.1847 8.97105 14.3388 9.03517 14.4997 9.03565Z" fill="#322A1B"/>
<path d="M19.3568 9.03565C19.5176 9.03517 19.6718 8.97105 19.7855 8.85729C19.8993 8.74354 19.9634 8.58939 19.9639 8.42852V6.60713C19.9639 6.44611 19.8999 6.29168 19.7861 6.17782C19.6722 6.06397 19.5178 6 19.3568 6C19.1957 6 19.0413 6.06397 18.9275 6.17782C18.8136 6.29168 18.7496 6.44611 18.7496 6.60713V8.42852C18.7501 8.58939 18.8142 8.74354 18.928 8.85729C19.0417 8.97105 19.1959 9.03517 19.3568 9.03565Z" fill="#322A1B"/>
<path d="M19.3569 13.5894H20.5712V14.5H19.3569V13.5894Z" fill="#322A1B"/>
<path d="M22.0889 7.82178H20.5711V8.42891C20.5711 8.75095 20.4432 9.0598 20.2155 9.28752C19.9877 9.51524 19.6789 9.64317 19.3568 9.64317C19.0348 9.64317 18.726 9.51524 18.4982 9.28752C18.2705 9.0598 18.1426 8.75095 18.1426 8.42891V7.82178H15.7141V8.42891C15.7141 8.75095 15.5861 9.0598 15.3584 9.28752C15.1307 9.51524 14.8219 9.64317 14.4998 9.64317C14.1778 9.64317 13.8689 9.51524 13.6412 9.28752C13.4135 9.0598 13.2856 8.75095 13.2856 8.42891V7.82178H10.857V8.42891C10.857 8.75095 10.7291 9.0598 10.5014 9.28752C10.2737 9.51524 9.96482 9.64317 9.64278 9.64317C9.32074 9.64317 9.01188 9.51524 8.78417 9.28752C8.55645 9.0598 8.42852 8.75095 8.42852 8.42891V7.82178H6.91069C6.66938 7.8225 6.43816 7.91868 6.26753 8.08931C6.0969 8.25994 6.00072 8.49116 6 8.73247V10.8574H22.9996V8.73247C22.9989 8.49116 22.9027 8.25994 22.7321 8.08931C22.5615 7.91868 22.3302 7.8225 22.0889 7.82178Z" fill="#322A1B"/>
<path d="M12.0713 19.0527H13.2859V19.9634H12.0713V19.0527Z" fill="#322A1B"/>
<path d="M6 11.4648V20.8753C6.00072 21.1167 6.0969 21.3479 6.26753 21.5185C6.43816 21.6891 6.66938 21.7853 6.91069 21.786H16.3403C16.0633 21.3488 15.875 20.8612 15.7864 20.3512C15.6978 19.8412 15.7104 19.3188 15.8237 18.8137C15.937 18.3086 16.1487 17.8308 16.4466 17.4075C16.7445 16.9841 17.1229 16.6237 17.5602 16.3466C17.9975 16.0696 18.485 15.8813 18.995 15.7927C19.505 15.7041 20.0275 15.7167 20.5326 15.83C21.0377 15.9433 21.5155 16.1549 21.9388 16.4529C22.3621 16.7508 22.7226 17.1292 22.9996 17.5665V11.4648H6ZM10.2499 19.9647C10.2499 20.1257 10.1859 20.2801 10.0721 20.394C9.95822 20.5078 9.8038 20.5718 9.64278 20.5718H8.42852C8.2675 20.5718 8.11307 20.5078 7.99921 20.394C7.88535 20.2801 7.82139 20.1257 7.82139 19.9647V19.054C7.82139 18.8929 7.88535 18.7385 7.99921 18.6247C8.11307 18.5108 8.2675 18.4468 8.42852 18.4468H9.64278C9.8038 18.4468 9.95822 18.5108 10.0721 18.6247C10.1859 18.7385 10.2499 18.8929 10.2499 19.054V19.9647ZM10.2499 17.2326C10.2499 17.3936 10.1859 17.548 10.0721 17.6619C9.95822 17.7757 9.8038 17.8397 9.64278 17.8397H8.42852C8.2675 17.8397 8.11307 17.7757 7.99921 17.6619C7.88535 17.548 7.82139 17.3936 7.82139 17.2326V16.3219C7.82139 16.1609 7.88535 16.0064 7.99921 15.8926C8.11307 15.7787 8.2675 15.7147 8.42852 15.7147H9.64278C9.8038 15.7147 9.95822 15.7787 10.0721 15.8926C10.1859 16.0064 10.2499 16.1609 10.2499 16.3219V17.2326ZM10.2499 14.5005C10.2499 14.6615 10.1859 14.8159 10.0721 14.9298C9.95822 15.0437 9.8038 15.1076 9.64278 15.1076H8.42852C8.2675 15.1076 8.11307 15.0437 7.99921 14.9298C7.88535 14.8159 7.82139 14.6615 7.82139 14.5005V13.5898C7.82139 13.4288 7.88535 13.2744 7.99921 13.1605C8.11307 13.0466 8.2675 12.9827 8.42852 12.9827H9.64278C9.8038 12.9827 9.95822 13.0466 10.0721 13.1605C10.1859 13.2744 10.2499 13.4288 10.2499 13.5898V14.5005ZM13.8927 19.9647C13.8927 20.1257 13.8287 20.2801 13.7149 20.394C13.601 20.5078 13.4466 20.5718 13.2856 20.5718H12.0713C11.9103 20.5718 11.7558 20.5078 11.642 20.394C11.5281 20.2801 11.4642 20.1257 11.4642 19.9647V19.054C11.4642 18.8929 11.5281 18.7385 11.642 18.6247C11.7558 18.5108 11.9103 18.4468 12.0713 18.4468H13.2856C13.4466 18.4468 13.601 18.5108 13.7149 18.6247C13.8287 18.7385 13.8927 18.8929 13.8927 19.054V19.9647ZM13.8927 17.2326C13.8927 17.3936 13.8287 17.548 13.7149 17.6619C13.601 17.7757 13.4466 17.8397 13.2856 17.8397H12.0713C11.9103 17.8397 11.7558 17.7757 11.642 17.6619C11.5281 17.548 11.4642 17.3936 11.4642 17.2326V16.3219C11.4642 16.1609 11.5281 16.0064 11.642 15.8926C11.7558 15.7787 11.9103 15.7147 12.0713 15.7147H13.2856C13.4466 15.7147 13.601 15.7787 13.7149 15.8926C13.8287 16.0064 13.8927 16.1609 13.8927 16.3219V17.2326ZM13.8927 14.5005C13.8927 14.6615 13.8287 14.8159 13.7149 14.9298C13.601 15.0437 13.4466 15.1076 13.2856 15.1076H12.0713C11.9103 15.1076 11.7558 15.0437 11.642 14.9298C11.5281 14.8159 11.4642 14.6615 11.4642 14.5005V13.5898C11.4642 13.4288 11.5281 13.2744 11.642 13.1605C11.7558 13.0466 11.9103 12.9827 12.0713 12.9827H13.2856C13.4466 12.9827 13.601 13.0466 13.7149 13.1605C13.8287 13.2744 13.8927 13.4288 13.8927 13.5898V14.5005ZM16.9283 16.3219H15.7141V17.2326C15.7946 17.2326 15.8718 17.2646 15.9287 17.3215C15.9857 17.3784 16.0176 17.4556 16.0176 17.5361C16.0176 17.6166 15.9857 17.6939 15.9287 17.7508C15.8718 17.8077 15.7946 17.8397 15.7141 17.8397C15.5531 17.8397 15.3986 17.7757 15.2848 17.6619C15.1709 17.548 15.1069 17.3936 15.1069 17.2326V16.3219C15.1069 16.1609 15.1709 16.0064 15.2848 15.8926C15.3986 15.7787 15.5531 15.7147 15.7141 15.7147H16.9283C17.0088 15.7147 17.0861 15.7467 17.143 15.8037C17.1999 15.8606 17.2319 15.9378 17.2319 16.0183C17.2319 16.0988 17.1999 16.176 17.143 16.233C17.0861 16.2899 17.0088 16.3219 16.9283 16.3219ZM17.5355 14.5005C17.5355 14.6615 17.4715 14.8159 17.3576 14.9298C17.2438 15.0437 17.0894 15.1076 16.9283 15.1076H15.7141C15.5531 15.1076 15.3986 15.0437 15.2848 14.9298C15.1709 14.8159 15.1069 14.6615 15.1069 14.5005V13.5898C15.1069 13.4288 15.1709 13.2744 15.2848 13.1605C15.3986 13.0466 15.5531 12.9827 15.7141 12.9827H16.9283C17.0894 12.9827 17.2438 13.0466 17.3576 13.1605C17.4715 13.2744 17.5355 13.4288 17.5355 13.5898V14.5005ZM21.1782 14.5005C21.1782 14.6615 21.1143 14.8159 21.0004 14.9298C20.8866 15.0437 20.7321 15.1076 20.5711 15.1076H19.3568C19.1958 15.1076 19.0414 15.0437 18.9275 14.9298C18.8137 14.8159 18.7497 14.6615 18.7497 14.5005V13.5898C18.7497 13.4288 18.8137 13.2744 18.9275 13.1605C19.0414 13.0466 19.1958 12.9827 19.3568 12.9827H20.5711C20.7321 12.9827 20.8866 13.0466 21.0004 13.1605C21.1143 13.2744 21.1782 13.4288 21.1782 13.5898V14.5005Z" fill="#322A1B"/>
</svg>
